nColumns=19
nRows=70
DataType=double
version=3
OpenSimVersion=4.1
endheader
time	ground_force_calcn_r_vx	ground_force_calcn_r_vy	ground_force_calcn_r_vz	ground_force_calcn_r_px	ground_force_calcn_r_py	ground_force_calcn_r_pz	ground_force_calcn_r_mx	ground_force_calcn_r_my	ground_force_calcn_r_mz	ground_force_calcn_l_vx	ground_force_calcn_l_vy	ground_force_calcn_l_vz	ground_force_calcn_l_px	ground_force_calcn_l_py	ground_force_calcn_l_pz	ground_force_calcn_l_mx	ground_force_calcn_l_my	ground_force_calcn_l_mz
0.13	-18.658	69.2858	-1.29992	1.50987	0	0.178375	0.169515	-0.629487	0.0118102	0	0	0	0	0	0	0	0	0
0.14	-36.332	205.426	-11.3349	0.90638	0	-0.23107	-0.11603	0.65605	-0.0361992	0	0	0	0	0	0	0	0	0
0.15	-55.4993	476.568	-25.801	0.885145	0	-0.23764	-0.15953	1.36987	-0.0741639	0	0	0	0	0	0	0	0	0
0.16	-86.2171	829.199	-28.0143	0.873095	0	-0.238538	-0.146971	1.41351	-0.047755	0	0	0	0	0	0	0	0	0
0.17	-145.697	1104.43	-13.3017	0.862396	0	-0.237733	-0.0940795	0.713152	-0.00858916	0	0	0	0	0	0	0	0	0
0.18	-218.327	1237.18	-8.00248	0.848322	0	-0.235777	0.0895001	-0.507163	0.0032805	0	0	0	0	0	0	0	0	0
0.19	-261.216	1322.69	-36.2816	0.825996	0	-0.232926	0.359582	-1.82077	0.0499441	0	0	0	0	0	0	0	0	0
0.2	-246.793	1431.47	-66.8188	0.793302	0	-0.229636	0.507888	-2.9459	0.13751	0	0	0	0	0	0	0	0	0
0.21	-195.852	1543.35	-68.9648	0.75311	0	-0.226434	0.468184	-3.68937	0.16486	0	0	0	0	0	0	0	0	0
0.22	-131.418	1615.39	-71.161	0.710154	0	-0.223768	0.310517	-3.81688	0.168141	0	0	0	0	0	0	0	0	0
0.23	-57.4129	1635.13	-91.5349	0.667067	0	-0.221842	0.115641	-3.29348	0.18437	0	0	0	0	0	0	0	0	0
0.24	21.2454	1606.7	-99.5363	0.62413	0	-0.220647	-0.034788	-2.63087	0.162984	0	0	0	0	0	0	0	0	0
0.25	98.9001	1529.82	-81.4109	0.580816	0	-0.220247	-0.174918	-2.70569	0.143986	0	0	0	0	0	0	0	0	0
0.26	170.105	1399.1	-57.7181	0.536943	0	-0.220824	-0.481499	-3.96029	0.163377	0	0	0	0	0	0	0	0	0
0.27	224.759	1214.78	-35.3816	0.492906	0	-0.222429	-1.07074	-5.78715	0.168557	0	0	0	0	0	0	0	0	0
0.28	251.928	990.512	-12.2037	0.449145	0	-0.224701	-1.74622	-6.86567	0.0845889	0	0	0	0	0	0	0	0	0
0.29	245.256	746.973	4.24492	0.404949	0	-0.226771	-2.07635	-6.32393	-0.0359378	0	0	0	0	0	0	0	0	0
0.3	210.259	506.923	10.7685	0.357082	0	-0.22744	-1.92441	-4.63964	-0.0985591	0	0	0	0	0	0	0	0	0
0.31	161.138	299.253	10.5176	0.298469	0	-0.225342	-1.74775	-3.24579	-0.114077	0	0	0	0	0	0	0	0	0
0.32	104.596	149.317	5.17434	0.216456	0	-0.216816	-2.11836	-3.02409	-0.104795	0	0	0	0	0	0	0	0	0
0.33	48.7169	65.4788	0.746149	0.124145	0	-0.143989	-2.80049	-3.76404	-0.0428923	0	0	0	0	0	0	0	0	0
0.34	0	0	0	0	0	0	0	0	0	0	0	0	0	0	0	0	0	0
0.35	0	0	0	0	0	0	0	0	0	0	0	0	0	0	0	0	0	0
0.36	0	0	0	0	0	0	0	0	0	0	0	0	0	0	0	0	0	0
0.37	0	0	0	0	0	0	0	0	0	0	0	0	0	0	0	0	0	0
0.38	0	0	0	0	0	0	0	0	0	0	0	0	0	0	0	0	0	0
0.39	0	0	0	0	0	0	0	0	0	0	0	0	0	0	0	0	0	0
0.4	0	0	0	0	0	0	0	0	0	0	0	0	0	0	0	0	0	0
0.41	0	0	0	0	0	0	0	0	0	-16.7159	54.6964	-7.20765	6.04466	0	1.72208	-0.224427	0.734355	-0.0967699
0.42	0	0	0	0	0	0	0	0	0	-28.956	162.655	-15.7758	0.931452	0	-0.318962	0.214429	-1.20452	0.116825
0.43	0	0	0	0	0	0	0	0	0	-32.086	381.616	-15.4866	0.907704	0	-0.323637	0.174348	-2.07362	0.0841506
0.44	0	0	0	0	0	0	0	0	0	-41.551	677.264	0.455495	0.896118	0	-0.325605	0.11499	-1.87429	-0.00126056
0.45	0	0	0	0	0	0	0	0	0	-88.5566	927.396	24.0342	0.887158	0	-0.32788	0.135742	-1.42154	-0.0368403
0.46	0	0	0	0	0	0	0	0	0	-162.21	1065.05	33.2552	0.875284	0	-0.33122	0.177041	-1.16243	-0.0362959
0.47	0	0	0	0	0	0	0	0	0	-219.969	1170.83	23.2538	0.85448	0	-0.335288	0.208259	-1.10851	-0.022016
0.48	0	0	0	0	0	0	0	0	0	-227.598	1317.01	32.9502	0.822279	0	-0.339018	0.190651	-1.10322	-0.0276013
0.49	0	0	0	0	0	0	0	0	0	-189.922	1481.51	70.1898	0.782667	0	-0.34167	0.12429	-0.969534	-0.0459338
0.5	0	0	0	0	0	0	0	0	0	-133.538	1609	92.2333	0.741827	0	-0.343305	0.0565848	-0.68179	-0.0390826
0.51	0	0	0	0	0	0	0	0	0	-70.5216	1672.04	84.3559	0.702845	0	-0.344127	0.0224604	-0.532525	-0.0268664
0.52	0	0	0	0	0	0	0	0	0	-7.23459	1671.17	72.6718	0.665234	0	-0.344074	0.00403017	-0.93096	-0.0404832
0.53	0	0	0	0	0	0	0	0	0	53.0951	1609.91	66.8786	0.626799	0	-0.343029	-0.0589112	-1.78626	-0.0742046
0.54	0	0	0	0	0	0	0	0	0	114.285	1484.59	50.6493	0.585316	0	-0.341035	-0.171733	-2.23084	-0.0761088
0.55	0	0	0	0	0	0	0	0	0	178.337	1297.33	20.2227	0.539995	0	-0.338223	-0.186356	-1.35567	-0.0211321
0.56	0	0	0	0	0	0	0	0	0	229.867	1071.82	-10.889	0.492543	0	-0.334619	0.149757	0.698282	-0.00709407
0.57	0	0	0	0	0	0	0	0	0	243.817	835.402	-27.5656	0.446257	0	-0.330301	0.796546	2.72924	-0.090056
0.58	0	0	0	0	0	0	0	0	0	221.472	603.834	-27.791	0.403163	0	-0.325674	1.33745	3.64649	-0.167827
0.59	0	0	0	0	0	0	0	0	0	181.007	394.364	-22.7472	0.360884	0	-0.321304	1.44405	3.1462	-0.181475
0.6	0	0	0	0	0	0	0	0	0	131.165	222.046	-18.8063	0.308444	0	-0.318126	0.92961	1.57371	-0.133287
0.61	0	0	0	0	0	0	0	0	0	76.5418	101.21	-14.0122	0.216606	0	-0.316364	-0.195371	-0.258335	0.0357659
0.62	0	0	0	0	0	0	0	0	0	0	0	0	0	0	0	0	0	0
0.63	0	0	0	0	0	0	0	0	0	0	0	0	0	0	0	0	0	0
0.64	0	0	0	0	0	0	0	0	0	0	0	0	0	0	0	0	0	0
0.65	0	0	0	0	0	0	0	0	0	0	0	0	0	0	0	0	0	0
0.66	0	0	0	0	0	0	0	0	0	0	0	0	0	0	0	0	0	0
0.67	0	0	0	0	0	0	0	0	0	0	0	0	0	0	0	0	0	0
0.68	0	0	0	0	0	0	0	0	0	0	0	0	0	0	0	0	0	0
0.69	0	0	0	0	0	0	0	0	0	0	0	0	0	0	0	0	0	0
0.7	-43.2148	119.091	-2.29937	0.955777	0	-0.231177	0.0658476	-0.181462	0.00350362	0	0	0	0	0	0	0	0	0
0.71	-58.907	303.016	-2.41945	0.913135	0	-0.250761	0.0490361	-0.25224	0.00201403	0	0	0	0	0	0	0	0	0
0.72	-66.1583	602.883	2.54732	0.897785	0	-0.254085	-0.0671486	0.611907	0.00258545	0	0	0	0	0	0	0	0	0
0.73	-88.2385	911.443	14.5904	0.887571	0	-0.254517	-0.173079	1.78778	0.0286188	0	0	0	0	0	0	0	0	0
0.74	-145.87	1115.47	20.1123	0.876505	0	-0.253906	-0.313414	2.39668	0.0432131	0	0	0	0	0	0	0	0	0
0.75	-207.651	1246.79	-4.03318	0.859175	0	-0.252548	-0.358149	2.15042	-0.00695628	0	0	0	0	0	0	0	0	0
0.76	-220.472	1370.69	-42.5047	0.831423	0	-0.250514	-0.213629	1.32814	-0.0411855	0	0	0	0	0	0	0	0	0
0.77	-180.547	1492.68	-58.8402	0.793742	0	-0.248125	-0.0316931	0.262024	-0.0103288	0	0	0	0	0	0	0	0	0
0.78	-118.128	1586.24	-62.2391	0.750825	0	-0.245855	0.0637417	-0.855936	0.0335843	0	0	0	0	0	0	0	0	0
0.79	-47.3393	1630.31	-78.0239	0.706943	0	-0.244118	0.0561485	-1.93369	0.0925431	0	0	0	0	0	0	0	0	0
0.8	27.7239	1617.98	-92.4841	0.66343	0	-0.243138	-0.0510151	-2.97727	0.170181	0	0	0	0	0	0	0	0	0
0.81	102.498	1550.6	-85.375	0.619792	0	-0.243014	-0.268835	-4.06697	0.223925	0	0	0	0	0	0	0	0	0
0.82	170.314	1429.31	-65.4411	0.575554	0	-0.243802	-0.616968	-5.17773	0.237062	0	0	0	0	0	0	0	0	0
